<svg width="200" height="200" viewBox="0 0 200 200" fill="none" xmlns="http://www.w3.org/2000/svg">
<path d="M77.4181 134.256C81.5928 138.198 86.3721 141.192 91.5906 143.164C96.7816 145.16 102.302 146.235 107.85 146.568C110.624 146.747 113.398 146.747 116.117 146.542C117.463 146.439 118.809 146.312 120.127 146.133C120.786 146.03 121.418 145.927 122.05 145.825L122.983 145.646C123.286 145.569 123.615 145.467 123.945 145.39C126.527 144.699 128.971 143.778 131.333 142.703C133.668 141.628 135.919 140.425 137.979 138.991C142.099 136.15 145.642 132.771 148.389 128.983C149.79 127.115 151.026 125.17 152.069 123.173C153.168 121.202 154.047 119.155 154.761 117.081L155.063 116.314L155.31 115.546C155.475 115.034 155.667 114.522 155.777 113.984C155.914 113.473 156.079 112.961 156.217 112.423L156.573 110.862C157.01 108.781 157.313 106.679 157.48 104.565L157.562 102.978L157.617 101.391C157.59 100.342 157.59 99.2667 157.507 98.2176L157.452 97.4239C157.425 97.1681 157.397 96.8864 157.37 96.6306C157.32 96.1003 157.256 95.5711 157.178 95.0436L156.931 93.4566L156.601 91.8952C154.788 83.551 149.982 75.7958 143.006 69.883C141.275 68.3988 139.38 67.0675 137.375 65.8646C135.398 64.6361 133.283 63.561 131.113 62.6394C126.719 60.8734 122.022 59.5937 117.106 59.1585C107.3 58.1858 96.809 60.0545 87.7176 65.0201C85.4108 66.2231 83.2135 67.6306 81.0987 69.2176C79.0113 70.8046 77.0613 72.5707 75.1662 74.439C73.2982 76.3333 71.5955 78.3807 70.0302 80.582C68.437 82.7577 67.064 85.1124 65.8005 87.5442L65.7455 87.6721C64.8667 89.3614 62.6694 90.078 60.8293 89.2336C59.3734 88.5677 58.577 87.109 58.7969 85.6755C60.6644 73.4923 67.723 61.6927 78.2698 53.1178C88.8437 44.5434 102.934 39.322 117.518 38.9124C121.171 38.7845 124.851 38.9891 128.477 39.4755C132.129 39.9363 135.728 40.704 139.27 41.7535C142.796 42.8353 146.23 44.1614 149.542 45.7208C152.838 47.3333 156.024 49.1761 158.991 51.2751C164.978 55.473 170.224 60.6176 174.399 66.5044C176.486 69.4478 178.354 72.5451 179.892 75.7702C181.402 79.0206 182.666 82.3736 183.6 85.8034C184.588 89.2336 185.165 92.7401 185.467 96.2721C185.769 99.8042 185.742 103.388 185.302 106.92C184.891 110.452 184.121 113.959 183.05 117.338L182.144 119.846C181.842 120.691 181.485 121.509 181.128 122.328C180.798 123.148 180.359 123.941 179.974 124.76L179.37 125.963L178.711 127.14C176.925 130.238 174.92 133.207 172.641 135.946C170.334 138.684 167.779 141.192 165.06 143.522C162.314 145.825 159.375 147.873 156.299 149.69C153.25 151.49 150.054 153.065 146.741 154.4C143.445 155.705 140.039 156.729 136.606 157.497C133.173 158.265 129.713 158.777 126.252 158.982C119.111 159.647 112.354 158.93 105.818 157.471C99.3081 155.91 92.991 153.453 87.4982 149.869C81.9775 146.312 77.3906 141.577 74.3969 136.227C74.286 136.027 74.2187 135.809 74.1988 135.585C74.1788 135.361 74.2067 135.135 74.2807 134.921C74.3548 134.707 74.4736 134.508 74.6303 134.337C74.7869 134.166 74.9784 134.025 75.1937 133.923C75.539 133.754 75.9337 133.692 76.3194 133.748C76.7052 133.803 77.0616 133.972 77.3361 134.231L77.4181 134.256Z" fill="url(#paint0_linear_836_9)"/>
<path d="M117.051 105.41C124.408 105.41 130.372 99.852 130.372 92.9958C130.372 86.1396 124.408 80.582 117.051 80.582C109.694 80.582 103.73 86.14 103.73 92.9958C103.73 99.852 109.694 105.41 117.051 105.41Z" fill="#F7AA2F"/>
<path d="M101.725 76.6403C99.94 78.995 98.594 81.2474 97.5778 83.4998C96.5891 85.7522 95.9846 87.9535 95.6828 90.078C95.408 92.2281 95.408 94.2499 95.6278 96.1442C95.9021 98.0382 96.4242 99.8042 97.0832 101.442C99.9125 108.021 105.405 112.167 111.805 113.626C114.991 114.368 118.424 114.24 121.83 113.344C123.546 112.847 125.195 112.169 126.746 111.322C127.103 111.066 127.515 110.836 127.899 110.606C128.312 110.375 128.641 110.068 129.026 109.812C129.218 109.684 129.41 109.556 129.603 109.403L130.124 108.942L130.674 108.481L130.948 108.251C131.031 108.174 131.113 108.072 131.195 107.995C133.969 105.307 136.167 101.75 137.21 97.4239C138.281 93.0981 138.117 88.0818 136.414 82.6553L136.386 82.6042C136.266 82.2039 136.32 81.7756 136.536 81.4117C136.751 81.0478 137.112 80.7774 137.54 80.6587C138.007 80.5308 138.474 80.6076 138.886 80.8126C144.653 84.0117 148.993 89.8222 150.916 96.5539C151.872 100.02 152.17 103.614 151.794 107.176C151.403 110.864 150.344 114.464 148.663 117.823C146.933 121.202 144.653 124.453 141.742 127.217C138.831 129.982 135.453 132.336 131.69 134.128C127.927 135.92 123.835 137.097 119.605 137.712C115.375 138.351 111.008 138.198 106.779 137.507L105.185 137.225C104.664 137.123 104.142 137.021 103.62 136.867C102.576 136.585 101.56 136.278 100.544 135.971C99.5278 135.638 98.5665 135.229 97.5778 134.819C97.0832 134.614 96.5891 134.41 96.1219 134.205L94.7215 133.488C94.2544 133.258 93.7877 133.002 93.3206 132.746C92.8535 132.49 92.3868 132.234 91.9747 131.953C91.0958 131.364 90.217 130.8 89.3656 130.186C88.5143 129.572 87.7449 128.881 86.9485 128.19C86.5643 127.857 86.1521 127.525 85.7674 127.166L84.6963 126.04C83.2134 124.581 82.0048 122.943 80.7963 121.305C80.248 120.457 79.726 119.595 79.231 118.72C79.0936 118.489 78.9837 118.284 78.8463 118.08L78.5166 117.414L77.885 116.057C77.6717 115.61 77.4703 115.158 77.281 114.701L76.7864 113.293L76.3197 111.886L76.0999 111.195L75.935 110.478C75.7152 109.531 75.5228 108.584 75.331 107.636C75.221 106.664 75.1386 105.717 75.0287 104.744C74.8089 100.905 75.2485 97.0658 76.3742 93.4822C77.5553 89.899 79.3409 86.5971 81.6201 83.7048C86.2071 77.9971 92.9084 74.0809 99.7751 73.3895C100.984 73.2616 102.054 74.0809 102.192 75.2071C102.247 75.7191 102.109 76.205 101.808 76.5891L101.725 76.6403Z" fill="url(#paint1_radial_836_9)"/>
<path d="M177.282 55.0633C171.185 49.6881 164.209 45.4138 156.821 42.0608C154.981 41.2159 153.085 40.4738 151.19 39.7572C149.295 39.0658 147.345 38.426 145.422 37.8117C141.575 36.6204 137.648 35.6629 133.667 34.9451C129.74 34.2029 125.785 33.7677 121.94 33.6143C120.017 33.5375 118.149 33.5371 116.364 33.6398L115.705 33.691L114.991 33.7677C114.496 33.8189 114.03 33.87 113.535 33.9212C112.574 34.0491 111.613 34.1774 110.679 34.3308C106.889 34.9195 103.181 35.7639 99.5828 36.8902C95.9846 37.9908 92.5242 39.322 89.2008 40.909C75.9076 47.1799 65.0589 57.1623 58.3022 68.9618C56.5995 71.9052 55.1161 74.9509 53.935 78.0994C52.7269 81.2218 51.8477 84.447 51.1337 87.6977C50.4747 90.9484 50.0625 94.2503 49.9526 97.5774C49.8702 100.905 49.9526 104.232 50.3648 107.534C50.7765 110.836 51.4634 114.087 52.4522 117.286C53.4409 120.46 54.6495 123.608 56.1324 126.629C57.6432 129.649 59.3733 132.567 61.4058 135.331C63.4107 138.121 65.608 140.783 68.0526 143.24C70.4693 145.723 73.1612 148.001 75.99 150.125C78.8188 152.25 81.84 154.144 84.9986 155.833C86.5846 156.67 88.2063 157.447 89.8598 158.162C91.5122 158.904 93.1983 159.579 94.9134 160.184C96.638 160.795 98.388 161.342 100.159 161.823C101.945 162.309 103.73 162.693 105.543 163.051C112.821 164.51 120.456 164.817 128.009 164.152C131.799 163.793 135.563 163.153 139.298 162.257C143.033 161.362 146.686 160.133 150.284 158.7C157.48 155.808 164.236 151.738 170.416 146.849C173.52 144.392 176.349 141.628 179.04 138.71C181.787 135.792 184.204 132.618 186.511 129.291C187.609 127.704 189.889 127.268 191.592 128.292C192.828 129.034 193.404 130.366 193.24 131.62L193.185 132.029C191.867 140.86 188.296 149.613 183.022 157.625C181.677 159.621 180.304 161.618 178.738 163.486L177.557 164.894L176.321 166.276C175.497 167.197 174.646 168.093 173.794 168.989C170.361 172.598 166.406 175.823 162.204 178.818C158.002 181.838 153.415 184.398 148.608 186.701C147.4 187.29 146.164 187.802 144.956 188.34C143.72 188.852 142.456 189.364 141.193 189.824C139.93 190.259 138.639 190.72 137.348 191.13C136.057 191.514 134.739 191.948 133.42 192.281C122.873 195.225 111.695 196.3 100.407 195.737C89.1184 195.071 77.8026 192.537 67.2283 188.212C56.6269 183.912 46.7941 177.82 38.2801 170.346C34.0229 166.583 30.0954 162.514 26.5522 158.111C23.0364 153.709 19.8783 149.025 17.1864 144.11C11.8031 134.282 8.20532 123.506 6.6945 112.525C6.31027 109.787 6.06297 107.022 5.92559 104.258C5.84315 102.876 5.81567 101.493 5.81567 100.112C5.81567 98.7291 5.84315 97.3472 5.92559 95.9652C6.14541 90.4365 6.91432 84.9333 8.17784 79.5069C10.6774 68.6801 15.3188 58.2885 21.6634 49.0226C28.008 39.7568 36.0553 31.6432 45.2562 25.1161C54.5121 18.6918 64.8941 13.7774 75.7427 10.7572C86.5914 7.73711 97.8526 6.61049 108.701 7.45535C110.047 7.55766 111.42 7.71111 112.739 7.86499C113.398 7.94172 114.085 8.04403 114.744 8.12076L115.76 8.24864L116.858 8.37694C119.742 8.70944 122.489 9.19581 125.098 9.75891C130.344 10.9874 135.233 12.6 139.902 14.4943C142.236 15.4155 144.516 16.4906 146.741 17.5912C148.966 18.6918 151.135 19.8948 153.25 21.0977C157.48 23.5807 161.435 26.3962 165.17 29.3908C172.558 35.4826 178.876 42.7006 182.968 50.7887L183.132 51.1216C183.984 52.8365 183.215 54.8583 181.375 55.652C179.974 56.2663 178.354 55.9845 177.282 55.0633Z" fill="url(#paint2_radial_836_9)"/>
<defs>
<linearGradient id="paint0_linear_836_9" x1="156.777" y1="60.117" x2="81.8989" y2="153.8" gradientUnits="userSpaceOnUse">
<stop stop-color="#42286E"/>
<stop offset="0.159" stop-color="#6B2B95"/>
<stop offset="0.337" stop-color="#932DBA"/>
<stop offset="0.514" stop-color="#B12FD7"/>
<stop offset="0.686" stop-color="#C731EB"/>
<stop offset="0.85" stop-color="#D532F8"/>
<stop offset="1" stop-color="#D932FC"/>
</linearGradient>
<radialGradient id="paint1_radial_836_9" cx="0" cy="0" r="1" gradientUnits="userSpaceOnUse" gradientTransform="translate(93.2598 144.602) scale(63.3536 59.0407)">
<stop stop-color="#6535F9"/>
<stop offset="0.127" stop-color="#8254F7"/>
<stop offset="0.313" stop-color="#A77CF5"/>
<stop offset="0.496" stop-color="#C49AF4"/>
<stop offset="0.674" stop-color="#D8B0F3"/>
<stop offset="0.845" stop-color="#E5BEF2"/>
<stop offset="1" stop-color="#E9C2F2"/>
</radialGradient>
<radialGradient id="paint2_radial_836_9" cx="0" cy="0" r="1" gradientUnits="userSpaceOnUse" gradientTransform="translate(78.3963 107.14) scale(181.109 168.779)">
<stop stop-color="#1515CE"/>
<stop offset="0.11" stop-color="#3B1BD7"/>
<stop offset="0.267" stop-color="#6B22E2"/>
<stop offset="0.424" stop-color="#9228EB"/>
<stop offset="0.578" stop-color="#B12CF3"/>
<stop offset="0.727" stop-color="#C72FF8"/>
<stop offset="0.87" stop-color="#D531FB"/>
<stop offset="1" stop-color="#D932FC"/>
</radialGradient>
</defs>
</svg>
